<?xml version="1.0" standalone="no"?><!DOCTYPE svg PUBLIC "-//W3C//DTD SVG 1.1//EN" "http://www.w3.org/Graphics/SVG/1.1/DTD/svg11.dtd"><svg t="1723262391593" class="icon" viewBox="0 0 1024 1024" version="1.1" xmlns="http://www.w3.org/2000/svg" p-id="5212" xmlns:xlink="http://www.w3.org/1999/xlink" width="200" height="200"><path d="M80 246.8h431.3v648.4H80z" fill="#7E4AFF" p-id="5213"></path><path d="M511.3 911.2H80c-8.8 0-16-7.2-16-16V246.8c0-8.8 7.2-16 16-16h431.3c8.8 0 16 7.2 16 16v648.4c0 8.9-7.1 16-16 16zM96 879.2h399.3V262.8H96v616.4z" fill="#00365B" p-id="5214"></path><path d="M511.3 895.2c-57.3-42-136.5-63.5-205.8-74-11.1-1.7-154.4-12.3-154.4-5.3V241.4 130.6c0-7 143.3 3.7 154.4 5.3 69.3 10.5 148.5 32 205.8 74v685.3z" fill="#FFFFFF" p-id="5215"></path><path d="M511.3 911.2c-3.3 0-6.7-1-9.5-3.1-58.2-42.7-140.2-62.2-198.7-71.1-13.4-2-123.6-9.5-144.3-7.1-2.3 1.3-4.9 2-7.7 2-8.8 0-16-7.2-16-16V130.6c0-4.8 2.1-9.4 5.8-12.6 5.1-4.4 11.4-5.9 36.1-5.7 12.9 0.1 30 0.8 50.8 1.9 34 1.9 73.1 4.9 80 5.9 62.1 9.4 149.4 30.4 212.9 77 4.1 3 6.5 7.8 6.5 12.9v685.2c0 6-3.4 11.5-8.8 14.3-2.1 1.2-4.6 1.7-7.1 1.7zM172.2 797.5h4.8c12.9 0.1 30 0.8 50.8 1.9 34 1.9 73.1 4.9 80 5.9 54.1 8.2 127.5 25.2 187.4 60.3V218.3c-57.7-39.5-135.8-57.9-192.2-66.5-12.1-1.8-103.2-8.1-136-7.5v653.3c1.8-0.1 3.4-0.1 5.2-0.1z m-5 18.4c0 0.5 0 1.1-0.1 1.6 0-0.5 0.1-1.1 0.1-1.6z m0 0z m0-0.1s0 0.1 0 0c0 0.1 0 0 0 0z" fill="#00365B" p-id="5216"></path><path d="M235.1 271.8c33.3 2 64.9 4.5 69.9 5.3 38.9 5.9 80.8 15.2 120.3 29.7" fill="#FFFFFF" p-id="5217"></path><path d="M425.3 322.8c-1.8 0-3.7-0.3-5.5-1-34.4-12.6-73.8-22.4-117.2-28.9-3.6-0.5-33.2-3-68.4-5.1-8.8-0.5-15.6-8.1-15-16.9 0.5-8.8 8.1-15.5 16.9-15 32.2 1.9 65.3 4.5 71.3 5.4 45.5 6.9 87.1 17.2 123.4 30.5 8.3 3 12.6 12.2 9.5 20.5-2.3 6.5-8.5 10.5-15 10.5z" fill="#00365B" p-id="5218"></path><path d="M235.1 465.3c33.3 2 64.9 4.5 69.9 5.3 38.9 5.9 80.8 15.2 120.3 29.7" fill="#FFFFFF" p-id="5219"></path><path d="M425.3 516.3c-1.8 0-3.7-0.3-5.5-1-34.4-12.6-73.8-22.4-117.2-28.9-3.6-0.5-33.2-3-68.4-5.1-8.8-0.5-15.6-8.1-15-16.9 0.5-8.8 8.1-15.6 16.9-15 32.2 1.9 65.3 4.5 71.3 5.4 45.5 6.9 87.1 17.2 123.4 30.5 8.3 3 12.6 12.2 9.5 20.5-2.3 6.5-8.5 10.5-15 10.5z" fill="#00365B" p-id="5220"></path><path d="M235.1 660.2c33.3 2 64.9 4.5 69.9 5.3 38.9 5.9 80.8 15.2 120.3 29.7" fill="#FFFFFF" p-id="5221"></path><path d="M425.3 711.3c-1.8 0-3.7-0.3-5.5-1-34.4-12.6-73.8-22.4-117.2-28.9-3.6-0.5-33.2-3-68.4-5.1-8.8-0.5-15.6-8.1-15-16.9s8.1-15.5 16.9-15c32.2 1.9 65.3 4.5 71.3 5.4 45.5 6.9 87.1 17.2 123.4 30.5 8.3 3 12.6 12.2 9.5 20.5-2.3 6.4-8.5 10.5-15 10.5z" fill="#00365B" p-id="5222"></path><path d="M942.554 895.213h-431.3v-648.4h431.3z" fill="#7E4AFF" p-id="5223"></path><path d="M942.5 911.2H511.2c-8.8 0-16-7.2-16-16V246.8c0-8.8 7.2-16 16-16h431.3c8.8 0 16 7.2 16 16v648.4c0 8.9-7.1 16-16 16z m-415.3-32h399.3V262.8H527.2v616.4z" fill="#00365B" p-id="5224"></path><path d="M511.2 895.2c57.3-42 136.5-63.5 205.8-74 11.1-1.7 154.4-12.3 154.4-5.3V241.4 130.6c0-7-143.3 3.7-154.4 5.3-69.3 10.5-148.5 32-205.8 74v685.3z" fill="#FFFFFF" p-id="5225"></path><path d="M511.2 911.2c-2.5 0-4.9-0.6-7.2-1.7-5.4-2.7-8.8-8.2-8.8-14.3V210c0-5.1 2.4-9.9 6.5-12.9 35-25.7 100.3-59.9 212.9-77 6.9-1 46-4 80-5.9 20.8-1.1 38-1.8 50.8-1.9 24.7-0.2 30.9 1.3 36.1 5.7 3.7 3.2 5.8 7.8 5.8 12.6v685.2c0 8.8-7.2 16-16 16-2.8 0-5.4-0.7-7.7-2-20.7-2.3-130.9 5.1-144.3 7.1-58.6 8.9-140.6 28.4-198.7 71.1-2.7 2.2-6 3.2-9.4 3.2z m16-692.9v647.4c38.3-22.3 97.9-46.7 187.4-60.3 6.9-1 46-4 80-5.9 20.8-1.1 38-1.8 50.8-1.9h9.9V144.3c-32.7-0.5-123.8 5.7-136 7.5-56.3 8.6-134.4 27-192.1 66.5z m328.2 597.6c0 0.6 0 1.1 0.1 1.6-0.1-0.5-0.1-1.1-0.1-1.6z m0 0z m0-0.1s0 0.1 0 0c0 0.1 0 0 0 0z" fill="#00365B" p-id="5226"></path><path d="M787.4 271.8c-33.3 2-64.9 4.5-69.9 5.3-38.9 5.9-80.8 15.2-120.3 29.7" fill="#FFFFFF" p-id="5227"></path><path d="M597.2 322.8c-6.5 0-12.6-4-15-10.5-3-8.3 1.2-17.5 9.5-20.5 36.4-13.4 77.9-23.6 123.4-30.5 6-0.9 39.1-3.5 71.3-5.4 8.8-0.5 16.4 6.2 16.9 15s-6.2 16.4-15 16.9c-35.2 2.1-64.8 4.6-68.4 5.1-43.4 6.6-82.8 16.3-117.2 28.9-1.8 0.7-3.6 1-5.5 1z" fill="#00365B" p-id="5228"></path><path d="M787.4 465.3c-33.3 2-64.9 4.5-69.9 5.3-38.9 5.9-80.8 15.2-120.3 29.7" fill="#FFFFFF" p-id="5229"></path><path d="M597.2 516.3c-6.5 0-12.6-4-15-10.5-3-8.3 1.2-17.5 9.5-20.5 36.4-13.4 77.9-23.6 123.4-30.5 6-0.9 39.1-3.5 71.3-5.4 8.8-0.5 16.4 6.2 16.9 15s-6.2 16.4-15 16.9c-35.2 2.1-64.8 4.6-68.4 5.1-43.4 6.6-82.8 16.3-117.2 28.9-1.8 0.7-3.6 1-5.5 1z" fill="#00365B" p-id="5230"></path><path d="M787.4 660.2c-33.3 2-64.9 4.5-69.9 5.3-38.9 5.9-80.8 15.2-120.3 29.7" fill="#FFFFFF" p-id="5231"></path><path d="M597.2 711.3c-6.5 0-12.6-4-15-10.5-3-8.3 1.2-17.5 9.5-20.5 36.4-13.4 77.9-23.6 123.4-30.5 6-0.9 39.1-3.5 71.3-5.4 8.8-0.5 16.4 6.2 16.9 15s-6.2 16.4-15 16.9c-35.2 2.1-64.8 4.6-68.4 5.1-43.4 6.6-82.8 16.3-117.2 28.9-1.8 0.6-3.6 1-5.5 1z" fill="#00365B" p-id="5232"></path></svg>